<svg width="18" height="20" viewBox="0 0 18 20" fill="none" xmlns="http://www.w3.org/2000/svg">
<path fill-rule="evenodd" clip-rule="evenodd" d="M8.75125 0C10.0426 0 11.126 0.89006 11.4216 2.09017L11.4582 2.269L11.578 2.33444C13.8006 3.59267 15.2674 5.87478 15.4825 8.46138L15.5012 8.75L15.4958 11.6599C15.6198 12.6843 16.2229 13.5889 17.1208 14.0974C17.7609 14.4599 17.5445 15.4083 16.8532 15.4938L16.7512 15.5H12.5012V15.75C12.5012 17.8211 10.8223 19.5 8.75125 19.5C6.74699 19.5 5.10997 17.9276 5.00644 15.9492L5.00125 15.75V15.5H0.751245C-0.0194025 15.5 -0.288914 14.4771 0.38168 14.0974C1.21973 13.6228 1.80096 12.8031 1.97113 11.9364L2.00125 11.75L2.00207 8.71484C2.12748 6.04289 3.61961 3.63912 5.9245 2.33443L6.04325 2.269L6.04555 2.25568C6.2687 1.02627 7.30919 0.0816061 8.58372 0.00501879L8.75125 0ZM6.50125 15.5V15.75C6.50125 16.9926 7.50861 18 8.75125 18C9.94211 18 10.9169 17.0748 10.9961 15.904L11.0012 15.75V15.5H6.50125ZM11.7512 14H5.75125H2.66425L2.73247 13.9042C3.13953 13.2936 3.4052 12.5887 3.49581 11.8401L3.50125 8.75L3.51838 8.4983C3.71152 6.3253 5.0598 4.37942 7.07185 3.42802L7.16093 3.37833L7.24064 3.31857L7.28158 3.28033L7.31057 3.24995L7.37029 3.17364L7.39885 3.12854L7.44231 3.04193L7.47445 2.94938L7.4944 2.85177L7.49851 2.81538L7.5077 2.62219C7.57171 1.99187 8.10404 1.5 8.75125 1.5C9.4416 1.5 10.0012 2.05964 10.0012 2.75L10.0089 2.85732C10.0445 3.10384 10.2012 3.31954 10.4306 3.42802C12.5201 4.41602 13.8937 6.47646 14.0021 8.78516L14.0012 11.75L14.0365 11.9984C14.1592 12.7366 14.4347 13.4117 14.8349 13.9902L14.8412 14H11.7512Z" fill="#212121"/>
</svg>
